<svg xmlns="http://www.w3.org/2000/svg" viewBox="0 0 1686.03 570.79"><defs><style>.cls-1{fill:#212121;}</style></defs><g id="Layer_2" data-name="Layer 2"><g id="Layer_1-2" data-name="Layer 1"><path class="cls-1" d="M326.72,418.09l10.66,10.68H180.12l10.66-10.68h.56c13.87,0,29.79-10.11,29.79-89V247.9c0-81.82-27.56-90.66-39.41-90.66-29.66,0-65.48,48.3-65.48,108.27v63.62c0,79.73,17,89,29.79,89h.57l10.65,10.68H0l10.65-10.68h.57c13.87,0,29.79-10.11,29.79-89V241.65c0-78.84-15.92-89-29.79-89h-.57L0,142H116.24v65.11c15-41,45.36-65.11,82.47-65.11,47,0,97.65,40.48,97.65,105.89v81.23c0,79.73,17,89,29.79,89Zm402.39,10.68v42.38c0,61.51,9.36,89,30.36,89H760l10.65,10.69H612.87l10.66-10.69h.56c21,0,30.36-27.44,30.36-89V428.77H470.7l10.65-10.68h.57c18.16,0,27.61-22.53,29.53-70.71-22.9,60.23-62,82-91.84,82-22.83,0-44.3-7.84-60.44-22.07-17.06-15-26.45-36.12-26.45-59.39,0-69.62,60.21-105,179-105.32-1.81-80.56-42.75-89.3-60.34-89.3-23,0-46.89,13.86-59.44,34.49-10.48,17.23-11.27,36.35-2.22,53.84l.24.47-3.81,14.49-39-66.78.69-.74c28-30.24,68.87-47.58,112-47.58,61.62,0,127.11,37.3,127.11,106.45v81.23c0,78.85,15.92,89,29.79,89h37.72V242.22c0-61.08-9.83-89.52-30.92-89.52h-.6L613,142h135.1c69.87,0,144.67,57.61,144.67,143.38S818,428.77,748.14,428.77Zm88.47-143.38c0-64-24.34-132.13-69.44-132.13h-19V418.09h19C782.65,418.09,817.58,372.51,817.58,285.39ZM437.41,402.2c9.29,1.64,20-2.17,30.89-11.11,20.33-16.66,42.58-53.48,43.41-94.92V253.25c-90.24.62-102.59,63-104.22,82.22C404.74,367.81,418.71,399,437.41,402.2Zm1132.38-73.07V247.9c0-81.82-27.56-90.66-39.41-90.66-29.66,0-65.48,48.3-65.48,108.27v63.62c0,79.73,17,89,29.79,89h.57l10.65,10.68H888.16l10.65-10.68h.56c13.88,0,29.8-10.11,29.8-89V99.64c0-78.85-15.92-89-29.8-89h-.56L888.16,0H1004.4V266.62c30.84-94.89,123.87-208.43,226.77-233.25a45.73,45.73,0,1,1-13.88,32.8v-.33c-54.29,1.7-120.93,67.8-163.41,133.3l21.74,43.61,44.75,88,22.09,44.31c14.76,28.5,24.93,43,39.57,43h21c21,0,30.36-27.44,30.36-89V241.65c0-61.52-9.36-89-30.36-89h-.6L1192.49,142H1308V329.13c0,61.52,9.36,89,30.36,89h21.52c13.87,0,29.79-10.11,29.79-89V241.65c0-78.84-15.92-89-29.79-89h-.57L1348.66,142H1464.9v65.1c15-40.94,45.36-65.1,82.47-65.1,47,0,97.66,40.48,97.66,105.89v81.23c0,79.73,17,89,29.79,89h.56L1686,428.77H1528.78l10.66-10.68h.57C1553.87,418.09,1569.79,408,1569.79,329.13Zm-528.34,15.36-29.65-58.92c-4.91,15.64-7.4,30.28-7.4,43.56,0,79.73,17,89,29.79,89h15.29c5,0,8.42-1.51,10.37-4.6C1065.51,404.48,1059.49,381.91,1041.45,344.49Z"/></g></g></svg>